<svg width="48" height="40" viewBox="0 0 48 40" fill="none" xmlns="http://www.w3.org/2000/svg">
<path fill-rule="evenodd" clip-rule="evenodd" d="M0.139238 3.81953C0.415444 5.54009 0.900071 8.5085 1.49156 11.9183C1.59229 12.499 2.02479 12.9668 2.59568 13.1133L23.6328 18.5096C23.8778 18.5725 24.1346 18.5724 24.3795 18.5093L45.3474 13.1122C45.9144 12.9662 46.345 12.503 46.4488 11.9267C47.0621 8.52023 47.5688 5.55346 47.8589 3.82995C48.0034 2.97162 47.3864 2.17486 46.5197 2.09537L24.1432 0.0433466C24.052 0.0349896 23.9603 0.0349896 23.8692 0.0433467L1.47992 2.09655C0.61789 2.1756 0.0020296 2.96483 0.139238 3.81953ZM6.24041 32.2824L23.4387 39.8379C23.821 40.0058 24.256 40.0068 24.639 39.8406L42.0591 32.2829C42.4668 32.106 42.7761 31.7587 42.8942 31.3303C43.6468 28.6008 44.5343 24.4154 45.3723 20.1137C45.5823 19.0357 44.5963 18.1101 43.5324 18.3824L24.4126 23.2776C24.1671 23.3405 23.9095 23.3401 23.6642 23.2765L4.80595 18.3877C3.74449 18.1125 2.7564 19.0322 2.9607 20.1095C3.77757 24.4173 4.65209 28.6089 5.41404 31.339C5.53221 31.7624 5.83797 32.1056 6.24041 32.2824Z" fill="#497FB4"/>
</svg>
